<?xml version="1.0" encoding="UTF-8"?>
<svg xmlns="http://www.w3.org/2000/svg"
     viewBox="0 0 1254 1254"
     width="1254" height="1254"
     fill="none">
  <title>ImageCtl logo</title>
  <desc>Vector recreation of the supplied ImageCtl logo.</desc>
  <defs>
    <linearGradient id="imagectl-blue" x1="180" y1="520" x2="1080" y2="520"
                    gradientUnits="userSpaceOnUse">
      <stop offset="0" stop-color="#073F9F"/>
      <stop offset="0.48" stop-color="#0874D1"/>
      <stop offset="1" stop-color="#10B7EF"/>
    </linearGradient>
  </defs>
  <path d="
    M 613.0,739.0 L 613.0,958.0 L 610.0,962.0 L 588.0,974.0 L 583.0,981.0 L 582.0,1021.0 L 588.0,1031.0 L 622.0,1050.0 L 632.0,1050.0 L 667.0,1030.0 L 670.0,1026.0 L 671.0,982.0 L 668.0,976.0 L 645.0,963.0 L 640.0,955.0 L 640.0,739.0 L 631.0,744.0 L 623.0,744.0 Z
    M 580.0,727.0 L 577.0,722.0 L 546.0,703.0 L 536.0,702.0 L 506.0,722.0 L 284.0,830.0 L 277.0,829.0 L 250.0,813.0 L 239.0,813.0 L 206.0,833.0 L 203.0,840.0 L 204.0,878.0 L 210.0,885.0 L 238.0,901.0 L 251.0,901.0 L 282.0,883.0 L 286.0,875.0 L 285.0,861.0 L 288.0,857.0 L 551.0,732.0 L 554.0,736.0 L 553.0,800.0 L 546.0,806.0 L 418.0,879.0 L 404.0,889.0 L 403.0,941.0 L 399.0,947.0 L 378.0,959.0 L 376.0,963.0 L 375.0,1001.0 L 380.0,1010.0 L 409.0,1027.0 L 422.0,1027.0 L 452.0,1010.0 L 456.0,1004.0 L 456.0,964.0 L 451.0,957.0 L 433.0,947.0 L 429.0,941.0 L 430.0,905.0 L 575.0,822.0 L 579.0,818.0 Z
    M 674.0,727.0 L 674.0,814.0 L 676.0,819.0 L 825.0,905.0 L 827.0,911.0 L 827.0,939.0 L 822.0,947.0 L 804.0,957.0 L 799.0,965.0 L 799.0,1002.0 L 804.0,1010.0 L 834.0,1027.0 L 843.0,1028.0 L 875.0,1010.0 L 880.0,1002.0 L 879.0,962.0 L 875.0,957.0 L 857.0,947.0 L 852.0,939.0 L 852.0,890.0 L 849.0,886.0 L 702.0,801.0 L 700.0,796.0 L 700.0,736.0 L 704.0,732.0 L 966.0,857.0 L 969.0,860.0 L 969.0,877.0 L 971.0,881.0 L 1003.0,901.0 L 1016.0,901.0 L 1046.0,884.0 L 1050.0,879.0 L 1051.0,838.0 L 1049.0,834.0 L 1016.0,813.0 L 1006.0,812.0 L 979.0,828.0 L 971.0,830.0 L 741.0,718.0 L 730.0,709.0 L 714.0,701.0 L 708.0,702.0 L 678.0,721.0 Z
    M 437.0,521.0 L 437.0,593.0 L 440.0,600.0 L 445.0,605.0 L 587.0,690.0 L 624.0,710.0 L 638.0,707.0 L 805.0,607.0 L 813.0,600.0 L 816.0,593.0 L 816.0,521.0 L 814.0,521.0 L 630.0,630.0 L 623.0,630.0 Z
    M 535.0,420.0 L 537.0,427.0 L 623.0,477.0 L 635.0,475.0 L 716.0,427.0 L 719.0,423.0 L 713.0,416.0 L 638.0,372.0 L 628.0,368.0 L 623.0,368.0 Z
    M 318.0,367.0 L 311.0,375.0 L 311.0,621.0 L 315.0,637.0 L 326.0,651.0 L 429.0,713.0 L 440.0,718.0 L 450.0,717.0 L 503.0,687.0 L 505.0,680.0 L 393.0,612.0 L 383.0,602.0 L 379.0,591.0 L 379.0,403.0 L 374.0,395.0 L 326.0,367.0 Z
    M 935.0,367.0 L 926.0,367.0 L 885.0,391.0 L 875.0,399.0 L 873.0,404.0 L 873.0,594.0 L 869.0,603.0 L 858.0,613.0 L 748.0,680.0 L 750.0,687.0 L 803.0,717.0 L 813.0,718.0 L 819.0,716.0 L 923.0,654.0 L 934.0,643.0 L 939.0,634.0 L 942.0,622.0 L 942.0,375.0 Z
    M 623.0,295.0 L 611.0,300.0 L 442.0,401.0 L 437.0,411.0 L 437.0,494.0 L 618.0,602.0 L 630.0,604.0 L 816.0,494.0 L 816.0,411.0 L 813.0,404.0 L 807.0,398.0 L 634.0,296.0 Z
    M 495.0,421.0 L 498.0,416.0 L 607.0,351.0 L 622.0,343.0 L 631.0,343.0 L 752.0,414.0 L 757.0,419.0 L 758.0,424.0 L 754.0,430.0 L 666.0,481.0 L 632.0,502.0 L 622.0,502.0 L 502.0,432.0 L 496.0,427.0 Z
    M 331.0,329.0 L 332.0,339.0 L 337.0,344.0 L 379.0,369.0 L 389.0,369.0 L 405.0,351.0 L 617.0,226.0 L 633.0,225.0 L 846.0,350.0 L 865.0,369.0 L 874.0,369.0 L 916.0,344.0 L 922.0,336.0 L 922.0,329.0 L 918.0,320.0 L 903.0,305.0 L 650.0,155.0 L 632.0,150.0 L 621.0,150.0 L 603.0,155.0 L 349.0,306.0 L 336.0,318.0 Z
  " fill="url(#imagectl-blue)" fill-rule="evenodd"/>
</svg>
